<svg width="367" height="60" viewBox="0 0 367 60" fill="none" xmlns="http://www.w3.org/2000/svg">
<g clip-path="url(#clip0_15_196)">
<path d="M25.7999 -1.52588e-05C31.2152 6.95093 43.2021 19.652 51.2518 27.2204C51.3564 27.3198 51.5997 27.5526 51.5997 28.0261C51.5997 28.6383 51.1053 29.1327 50.4931 29.1327H44.1203C44.0758 29.4885 44.0314 29.8443 43.9869 30.2446C42.8724 39.584 40.5991 58.2158 40.5991 58.2158C40.531 58.7573 40.1256 59.202 39.5736 59.202C36.6305 59.202 33.69 59.202 30.7024 59.202C30.6579 55.2439 30.5245 47.5918 30.5245 46.569C30.5245 41.5434 30.7181 37.4964 31.1027 34.514C31.1314 34.2812 31.1471 33.928 31.1471 33.8391C31.1471 33.4833 30.8803 33.3132 30.3885 33.3132C29.3316 33.3132 26.8646 33.6533 25.9751 33.669C25.915 33.669 25.8574 33.669 25.7972 33.669C25.7371 33.669 25.6795 33.669 25.6193 33.669C24.7325 33.6533 22.2629 33.3132 21.206 33.3132C20.7168 33.3132 20.4473 33.4833 20.4473 33.8391C20.4473 33.928 20.463 34.2812 20.4918 34.514C20.879 37.4964 21.07 41.5408 21.07 46.569C21.07 47.5918 20.9365 55.2413 20.8921 59.202H12.0209C11.4663 59.202 11.0634 58.7573 10.9954 58.2158C10.9954 58.2158 8.72204 39.5866 7.60758 30.2446C7.56311 29.8443 7.51864 29.4885 7.47416 29.1327H1.10661C0.494441 29.1327 0 28.6383 0 28.0261C0 27.55 0.243296 27.3198 0.34794 27.2204C8.39764 19.652 20.3846 6.95093 25.7999 -1.52588e-05Z" fill="white"/>
<path d="M25.7998 27.6337C29.172 27.6337 31.9057 24.8999 31.9057 21.5277C31.9057 18.1555 29.172 15.4218 25.7998 15.4218C22.4276 15.4218 19.6938 18.1555 19.6938 21.5277C19.6938 24.8999 22.4276 27.6337 25.7998 27.6337Z" fill="#E50013"/>
<path d="M269.53 33.0045C270.2 33.0045 271.448 33.2269 273.363 33.6716C275.103 33.983 276.343 34.3178 277.106 34.5611C277.415 34.6605 277.617 34.7835 277.551 34.9614C277.53 35.0215 277.468 35.1837 277.418 35.495C276.895 38.7521 276.57 42.1661 276.57 45.771C276.57 47.1497 276.659 49.1955 276.837 51.9084C277.015 54.6213 277.104 56.667 277.104 58.0013C277.104 58.7128 276.793 59.0686 276.123 59.1576C273.894 59.3355 271.354 59.4244 268.544 59.4244C268.023 59.4009 267.927 59.1052 267.741 57.8678C267.607 56.8449 267.474 56.3113 267.341 56.2668C267.207 56.3557 267.029 56.5336 266.807 56.8005C264.756 58.8018 262.616 59.7802 260.298 59.7802C256.777 59.7802 253.878 58.4015 251.607 55.6886C249.423 53.1092 248.398 49.996 248.442 46.4381C248.442 42.3466 249.556 39.0555 251.83 36.5179C254.103 33.894 257.313 32.5598 261.368 32.5598C264.175 32.5598 266.36 33.5382 267.966 35.495C268.06 35.6102 268.146 35.6939 268.233 35.6729C268.361 35.6416 268.5 35.2282 268.677 34.3832C268.91 33.3211 269.258 33.0045 269.525 33.0045H269.53ZM281.609 34.1164C282.59 34.0274 284.06 33.8495 285.978 33.5827C288.785 32.9601 290.258 32.6932 290.346 32.7377C290.702 32.6932 290.925 33.2714 291.016 34.4277C291.105 35.4061 291.239 35.9843 291.461 36.1177C291.461 36.1177 292.131 35.5395 293.645 34.6945C295.382 33.7606 297.033 33.2714 298.637 33.2714C299.618 33.2714 300.107 33.4937 300.107 33.983C300.107 34.4722 300.081 35.1864 299.974 36.1177C299.859 37.0987 299.796 37.8521 299.796 38.2969V40.2982C299.84 41.3656 299.84 42.0771 299.84 42.4329C299.84 43.1445 299.435 43.3695 298.681 43.4558C298.281 43.5029 297.878 43.495 297.256 43.4558C296.539 43.4113 296.052 43.3224 295.696 43.3224C294.226 43.3224 293.201 43.5448 292.664 44.034C292.131 44.4787 291.906 45.4126 291.95 46.8803C291.906 47.5918 291.906 48.7926 291.95 50.3937C291.95 51.9502 291.95 53.1066 291.995 53.9071C291.995 54.3963 292.063 55.1497 292.128 56.1752C292.193 57.2007 292.173 57.9986 292.173 58.4878C292.173 58.8881 291.927 59.1811 291.325 59.1994C290.477 59.2439 289.14 59.2439 287.359 59.2439C285.577 59.2439 284.282 59.1994 283.257 59.1105C282.632 59.0215 282.365 58.7547 282.409 58.2655C282.365 56.7979 282.365 54.6631 282.409 51.8613V45.3682C282.365 41.1877 281.965 37.7187 281.25 34.9588C281.206 34.8253 281.206 34.7364 281.206 34.6474C281.206 34.3806 281.339 34.2027 281.606 34.1138L281.609 34.1164ZM324.089 35.6729C326.451 38.1635 327.654 41.1432 327.654 44.6121C327.654 46.4355 327.076 47.4584 325.915 47.7253C325.737 47.7697 323.908 47.9476 320.387 48.3034C318.247 48.5703 315.126 48.8371 310.938 49.1484C311.16 50.3047 311.874 51.1942 313.167 51.8168C314.237 52.3505 315.44 52.5729 316.777 52.5729C318.336 52.5729 319.963 52.2432 321.501 51.2831C322.171 50.8646 322.776 50.4329 323.487 50.051C323.558 50.0117 323.647 50.017 323.709 50.0667C324.078 50.3544 324.664 51.223 325.467 52.7063C326.315 54.3518 326.76 55.3747 326.76 55.8194C326.76 55.9529 326.626 56.1752 326.36 56.4865C324.22 58.7992 320.787 59.9999 316.196 59.9999C311.916 59.9999 308.484 58.7547 305.899 56.2642C303.226 53.7737 301.889 50.4381 301.933 46.2105C301.889 42.0745 303.092 38.6945 305.499 36.1124C307.95 33.3996 311.249 32.0209 315.304 32.0209C318.736 31.9319 321.679 33.1772 324.086 35.6677L324.089 35.6729ZM345.705 32.0261C346.731 32.0261 347.668 32.3374 348.424 33.0045C349.182 33.6272 349.583 34.4277 349.583 35.4061C349.583 37.7187 348.29 38.9195 345.705 38.9195C344.636 38.9195 343.743 38.6527 343.032 38.0745C342.229 37.4074 341.784 36.5624 341.784 35.4061C341.74 34.4277 342.14 33.5827 343.032 32.9601C343.791 32.3374 344.68 32.0261 345.705 32.0261ZM360.282 34.5611C360.594 34.5873 360.727 34.6501 360.727 34.8724C360.727 35.4061 360.774 36.2092 360.683 37.274C360.594 38.3021 360.505 39.0974 360.505 39.6756C360.505 40.3427 360.683 40.654 361.085 40.654C361.575 40.6095 362.289 40.6095 363.225 40.6095C364.118 40.565 364.829 40.565 365.365 40.565C365.632 40.565 365.766 40.654 365.766 40.8763C365.766 41.1877 365.766 41.6324 365.721 42.255C365.632 42.8777 365.588 43.3224 365.588 43.6337V45.0124C365.588 45.635 365.609 46.0771 365.632 46.4355C365.648 46.7024 365.454 46.8358 365.054 46.8358H363.762C363.092 46.7913 362.647 46.7913 362.38 46.7913H360.834C360.756 46.7913 360.685 46.8279 360.659 46.9404C360.622 47.0895 360.63 47.3538 360.643 47.6808C360.656 48.0078 360.643 48.4368 360.643 49.1039V50.3937C360.643 51.5055 360.69 52.327 360.955 52.7952C361.303 53.4074 362.072 53.703 363.095 53.6402C363.453 53.6167 363.898 53.5068 364.52 53.3734C365.099 53.24 365.501 53.1955 365.768 53.1955C366.08 53.1955 366.299 53.3263 366.302 53.6402C366.307 54.0431 366.213 54.6186 366.124 55.4636C366.035 56.2197 366.009 56.8423 365.991 57.1981C365.967 57.601 365.886 57.8077 365.813 57.9097C365.755 57.9908 365.59 58.1321 365.235 58.31C363.495 59.2439 361.58 59.7331 359.529 59.7776C355.741 59.7776 353.823 58.3544 353.823 55.4636C353.823 54.5742 353.868 53.24 353.957 51.461C354.001 49.7266 354.001 48.4368 354.001 47.5918C354.001 46.9692 353.69 46.7024 353.02 46.7024H352.439C351.906 46.7024 351.793 46.5219 351.725 46.1687C351.691 45.9934 351.681 45.6795 351.725 45.2792C351.77 44.79 351.77 44.4787 351.77 44.2563C351.77 43.945 351.746 43.5448 351.725 42.9666C351.704 42.3884 351.702 41.9908 351.725 41.7213C351.751 41.41 352.018 41.1484 353.017 41.1877C353.465 41.206 353.687 41.1432 353.732 40.9208C353.821 40.3871 353.865 39.5866 353.865 38.5193C353.865 38.5193 353.747 36.6854 353.732 36.0732C353.69 34.5166 353.87 33.8783 354.176 33.8051C354.482 33.7318 355.016 33.8365 355.647 33.983C356.397 34.1556 356.939 34.2106 357.206 34.2498C357.896 34.3518 358.885 34.4486 360.282 34.5611ZM349.138 40.5206C349.449 40.5389 349.609 40.6801 349.609 40.947C349.609 40.9915 349.609 41.1066 349.583 41.3211C349.271 43.8561 349.138 46.8358 349.138 50.2602C349.138 51.1942 349.138 52.6173 349.182 54.5297C349.227 56.4421 349.227 57.8652 349.227 58.7992C349.182 59.066 349.004 59.2439 348.646 59.3328C348.201 59.4218 347.22 59.4663 345.658 59.4663C344.097 59.4663 343.032 59.4061 342.626 59.3328C342.315 59.2753 342.226 59.2334 342.14 59.1209C342.064 59.0189 342.059 58.8279 342.048 58.4878C342.022 57.5984 342.004 56.2197 342.048 54.3963C342.093 52.5284 342.137 51.1497 342.182 50.2602C342.182 46.5245 342.048 43.5448 341.737 41.3211C341.692 41.0542 341.692 40.9208 341.692 40.8763C341.692 40.565 341.868 40.4735 342.226 40.4761C342.629 40.4787 343.199 40.5179 343.966 40.6095C344.675 40.6932 346.642 40.6749 347.398 40.6095C348.154 40.5441 348.732 40.497 349.135 40.5206H349.138ZM318.25 42.9666C318.25 41.8548 317.828 40.8973 317.091 40.1203C316.309 39.2962 315.396 38.8515 314.284 38.8306C313.172 38.8096 312.178 39.257 311.432 40.2092C310.749 41.0804 310.407 42.1216 310.407 43.3224C310.407 43.8116 310.674 44.034 311.165 44.0784C312.458 44.034 314.509 43.8116 317.316 43.3669C317.985 43.2779 318.252 43.1445 318.252 42.9666H318.25ZM266.543 42.2105C265.562 41.1877 264.314 40.654 262.799 40.654C261.284 40.654 259.992 41.1432 259.055 42.1216C258.119 43.0555 257.63 44.3008 257.63 45.8574C257.674 47.325 258.21 48.5703 259.189 49.5931C260.17 50.616 261.373 51.1497 262.799 51.1497C264.314 51.1497 265.562 50.6605 266.498 49.6821C267.479 48.7037 267.969 47.4139 267.969 45.8574C267.969 44.3897 267.524 43.1445 266.543 42.2105ZM47.5082 34.3832C47.864 34.2053 48.5782 34.0719 49.6926 33.983C50.985 33.8495 51.7881 33.7606 52.0105 33.7161C52.2329 33.6716 52.947 33.4937 54.1949 33.138C54.9981 32.8711 55.7096 32.7377 56.2904 32.7377C56.6017 32.7377 56.7796 33.3603 56.8241 34.6056C56.8686 35.8508 56.9575 36.4735 57.0909 36.4735C57.2688 36.3845 57.4912 36.2511 57.7606 36.0732C59.3198 34.8279 60.5677 33.983 61.5043 33.5382C62.8856 32.8266 64.4003 32.5153 65.9621 32.5153C67.6102 32.5153 69.0831 32.8711 70.3754 33.6272C71.8012 34.4277 72.7377 35.6285 73.227 37.1406C74.119 35.8508 75.4114 34.739 77.104 33.8495C78.7521 33.0045 80.3584 32.5598 81.9621 32.5598C84.2799 32.5598 86.242 33.138 87.7567 34.2498C89.4493 35.4506 90.2969 37.185 90.2969 39.4977C90.2969 40.3871 90.2969 41.8103 90.2524 43.7671C90.1635 45.6795 90.119 47.1026 90.119 48.0366C90.119 49.1484 90.1635 50.8384 90.2524 53.1066C90.2969 55.3302 90.2969 57.0202 90.2969 58.1765C90.2969 58.8436 90.0301 59.1994 89.5383 59.2884C88.9601 59.3328 87.6207 59.3328 85.5278 59.3328C83.4349 59.3328 81.9621 59.2884 81.4258 59.1994C80.8921 59.1105 80.6671 58.6657 80.6671 57.9097C80.6671 57.1092 80.6671 55.8639 80.7116 54.2184C80.756 52.5729 80.7561 51.3721 80.7561 50.616C80.7561 47.4139 80.756 45.1458 80.7116 43.8116C80.5782 41.6769 79.5526 40.654 77.6795 40.6985C76.8764 40.6985 76.0628 41.0909 75.2283 41.8103C74.3937 42.5297 73.8914 43.2334 73.8025 44.1229C73.7135 44.8345 73.7135 47.0582 73.758 50.6605C73.758 51.461 73.7816 52.7508 73.8025 54.4852C73.8234 56.2197 73.8025 57.465 73.8025 58.3544C73.8025 58.9326 73.5801 59.1994 73.0883 59.1994H64.9758C64.4421 59.1994 64.2171 58.8436 64.2171 58.0876C64.2171 57.2426 64.2171 55.9529 64.2616 54.2629C64.3061 52.5729 64.3061 51.4166 64.3061 50.5716C64.3061 49.86 64.2616 48.8816 64.2616 47.5474V44.5676C64.2616 41.9882 63.2806 40.6985 61.3656 40.6985C60.5625 40.654 59.673 40.9653 58.7809 41.5879C57.7999 42.255 57.3107 42.9221 57.3107 43.6782C57.2662 45.3237 57.2662 47.7697 57.3107 50.9718V58.1765C57.3107 58.6213 57.3211 58.8829 57.206 59.0241C57.0909 59.1654 56.8215 59.2099 56.3741 59.2439C55.6181 59.3041 54.3231 59.2884 52.6305 59.2884C51.516 59.2884 50.2237 59.2439 48.7979 59.1549C48.3532 59.1105 48.2041 59.0712 48.0942 58.9587C47.9634 58.8227 47.9058 58.5768 47.9058 58.1321V45.3656C47.9058 42.3858 47.728 39.0503 47.3277 35.4009C47.2518 34.7181 47.2047 34.5297 47.5056 34.378L47.5082 34.3832ZM102.111 33.138C102.961 32.8816 103.673 32.6906 104.251 32.7377C104.683 32.7717 104.764 33.3603 104.785 34.6056C104.806 35.8508 104.829 36.4735 104.963 36.4735C105.141 36.3845 105.363 36.2511 105.632 36.0732C107.236 34.8279 108.528 33.983 109.465 33.5382C110.802 32.8266 112.317 32.5153 113.923 32.5153C115.529 32.5153 116.999 32.8711 118.336 33.6272C119.762 34.4277 120.698 35.6285 121.188 37.1406C122.08 35.8508 123.372 34.739 125.065 33.8495C126.713 33.0045 128.319 32.5598 129.923 32.5598C132.241 32.5598 134.158 33.138 135.628 34.2498C137.321 35.4506 138.169 37.185 138.169 39.4977C138.169 40.3871 138.169 41.8103 138.124 43.7671C138.08 45.6795 138.08 47.1026 138.08 48.0366C138.08 49.1484 138.08 50.8384 138.124 53.1066C138.169 55.3302 138.169 57.0202 138.169 58.1765C138.169 58.8436 137.902 59.1994 137.41 59.2884C136.832 59.3328 135.537 59.3328 133.444 59.3328C131.351 59.3328 129.878 59.2884 129.342 59.1994C128.764 59.1105 128.539 58.6657 128.583 57.9097C128.583 57.1092 128.583 55.8639 128.628 54.2184C128.672 52.5729 128.746 51.3721 128.761 50.616C128.835 47.4139 128.672 45.1458 128.583 43.8116C128.494 41.6769 127.513 40.654 125.596 40.6985C124.748 40.6985 123.859 41.0542 123.011 41.8103C122.208 42.4774 121.763 43.2334 121.719 44.1229C121.63 44.8345 121.585 47.0582 121.585 50.6605C121.585 51.461 121.719 57.465 121.719 58.3544C121.719 58.9326 121.496 59.1994 121.005 59.1994H112.848C112.358 59.1994 112.204 58.8436 112.178 58.0876C112.146 57.1065 112.133 55.9529 112.178 54.2629C112.222 52.6173 112.249 51.4166 112.222 50.5716C112.199 49.86 112.133 45.2347 112.178 44.5676C112.178 41.9882 111.197 40.6985 109.282 40.6985C108.479 40.654 107.589 40.9653 106.697 41.5879C105.716 42.255 105.227 42.9221 105.227 43.6782V58.1791C105.227 58.6239 105.243 58.9378 105.094 59.0686C104.973 59.1733 104.693 59.2151 104.335 59.2465C103.49 59.3224 102.15 59.291 100.458 59.291C99.3434 59.291 98.051 59.2465 96.6252 59.1576C96.1805 59.1131 95.911 59.0686 95.8666 58.9797C95.7776 58.8462 95.7986 58.582 95.8221 58.1347C95.8901 56.7586 95.8221 54.6213 95.8221 51.775V45.3708C95.8221 42.3911 95.8038 39.0346 95.2439 35.4061C95.2099 35.1811 95.2047 35.0503 95.1995 34.9614C95.1759 34.6474 95.2439 34.4722 95.5108 34.3832C95.911 34.2053 96.6697 34.0719 97.7842 33.983C99.0765 33.8495 99.8483 33.7449 100.097 33.6952C100.306 33.6559 100.863 33.5094 102.106 33.138H102.111ZM165.316 36.1177C167.812 38.6082 169.059 41.8992 169.059 45.9489C169.059 49.9986 167.812 53.3315 165.36 55.8691C162.82 58.4041 159.521 59.6939 155.419 59.7383C151.498 59.7383 148.243 58.4486 145.703 55.9136C143.163 53.4231 141.915 50.221 141.959 46.3518C141.959 42.1713 143.163 38.7913 145.57 36.2537C147.976 33.6743 151.275 32.3845 155.419 32.3845C159.521 32.3401 162.773 33.5853 165.316 36.1203V36.1177ZM177.264 20.9051C179.181 20.7272 180.74 20.6383 181.944 20.6383C182.255 20.6383 182.509 20.8764 182.477 21.4833C182.433 22.1949 182.182 26.5977 182.166 27.0425C182.098 28.7822 181.988 31.1785 181.988 34.2917C181.988 34.8253 182.122 35.0922 182.433 35.1366C182.611 35.1366 182.789 35.0922 182.967 34.9588C184.526 33.2243 186.621 32.3793 189.25 32.3793C193.127 32.3793 196.204 33.7135 198.388 36.3819C200.439 38.7835 201.42 42.03 201.42 46.0771C201.42 49.7684 200.35 52.926 198.255 55.461C195.937 58.1294 192.905 59.4636 189.25 59.4636C186.577 59.4636 184.246 58.8515 182.742 57.1955C182.592 57.0307 182.519 56.9287 182.43 56.9287C182.252 56.9287 182.119 57.2844 181.986 57.9515C181.808 58.6631 181.753 59.0058 181.407 59.0634C181.096 59.1523 178.556 59.1968 173.74 59.2413C172.625 59.1968 172.047 58.9744 172.047 58.5297C172.047 58.4852 172.047 58.3518 172.092 58.1294C172.447 55.2831 172.625 49.9018 172.625 41.9385C172.625 33.9751 172.358 27.6599 171.867 22.0562L171.822 21.7449C171.822 21.4336 172.089 21.3002 172.67 21.3002C172.937 21.3002 174.498 21.1667 177.261 20.8999L177.264 20.9051ZM205.256 33.6716C205.789 33.6272 206.592 33.6716 207.662 33.8051C208.643 33.894 209.4 33.9385 209.936 33.983C210.425 33.983 211.184 33.9385 212.209 33.8495C213.279 33.7606 214.082 33.7161 214.616 33.7161C215.061 33.7161 215.286 33.894 215.286 34.2498V34.7835C214.841 38.2524 214.616 42.255 214.616 46.8384C214.616 48.1726 214.66 50.1739 214.66 52.7979C214.705 55.3328 214.749 57.2452 214.794 58.5794C214.794 58.9352 214.572 59.1576 214.08 59.2465C213.454 59.3355 212.118 59.3799 209.978 59.3799C207.838 59.3799 206.412 59.3355 205.831 59.2465C205.413 59.1759 205.25 59.1105 205.161 58.9221C205.099 58.7887 205.073 58.5794 205.073 58.0902C205.073 56.8894 205.117 55.066 205.117 52.5755C205.161 50.0405 205.206 48.1281 205.25 46.8829C205.206 41.8574 204.984 37.8103 204.581 34.828C204.536 34.5166 204.536 34.3387 204.536 34.2943C204.536 33.8495 204.803 33.6716 205.25 33.6716H205.256ZM219.328 22.153C219.362 21.7083 219.652 21.4833 220.099 21.4833H229.638C230.124 21.4833 230.373 21.7214 230.333 22.1635C230.323 22.2707 230.307 22.5951 230.307 22.5951C229.774 30.289 229.504 37.0961 229.504 43.0555C229.504 47.9032 229.549 51.6389 229.549 54.2655C229.549 54.7102 229.549 55.4218 229.593 56.4002C229.638 57.2897 229.682 58.0013 229.727 58.5349C229.682 58.8907 229.46 59.1131 229.012 59.202C228.209 59.3355 226.783 59.3799 224.732 59.3799C222.504 59.3799 221.122 59.3355 220.497 59.202C220.097 59.1131 219.872 58.8907 219.827 58.4905V57.3342C219.827 55.7331 219.827 53.376 219.872 50.2184C219.916 47.0163 219.961 44.6592 220.005 43.1026V32.8266C219.961 28.913 219.66 25.5408 219.335 22.6841C219.301 22.378 219.314 22.2603 219.322 22.153H219.328ZM239.754 33.983C240.288 34.0065 241.046 33.9385 242.072 33.8495C243.097 33.7606 243.9 33.7161 244.39 33.7161C244.834 33.7161 245.059 33.894 245.059 34.2498C245.059 34.2943 245.059 34.4722 245.015 34.7835C244.615 38.2524 244.434 42.255 244.434 46.8384C244.434 48.1726 244.479 50.1739 244.568 52.7979C244.612 55.3328 244.612 57.2452 244.612 58.5794C244.612 58.9352 244.39 59.1576 243.898 59.2465C243.273 59.3355 241.936 59.3799 239.796 59.3799C237.656 59.3799 236.228 59.3538 235.649 59.2465C235.246 59.1706 235.032 59.1157 234.935 58.9352C234.888 58.8462 234.891 58.5794 234.891 58.0902C234.891 56.8894 234.935 55.066 235.024 52.5755C235.069 50.0405 235.069 48.1281 235.069 46.8829C235.024 41.8574 234.802 37.8103 234.399 34.828C234.354 34.5166 234.354 34.3414 234.362 34.2786C234.409 33.9123 234.577 33.7161 235.069 33.7161C235.602 33.6716 236.356 33.7606 237.386 33.8495C238.417 33.9385 239.257 33.9594 239.749 33.983H239.754ZM186.757 51.1523C188.272 51.1523 189.475 50.6187 190.367 49.5958C191.171 48.6173 191.615 47.3276 191.615 45.771C191.615 44.3034 191.171 43.0582 190.234 42.0353C189.298 41.0124 188.094 40.5232 186.668 40.5676C185.154 40.5232 183.95 41.0124 183.103 42.0353C182.255 43.0137 181.81 44.3034 181.855 45.86C181.81 47.4166 182.211 48.7063 183.103 49.6847C183.995 50.6631 185.243 51.1523 186.757 51.1523ZM158.943 42.255C158.051 41.1432 156.892 40.6095 155.511 40.654C154.085 40.6095 152.926 41.1432 151.989 42.255C151.142 43.2779 150.697 44.5232 150.697 45.9463C150.697 47.3695 151.142 48.6592 151.989 49.6821C152.882 50.7495 154.085 51.3276 155.511 51.3721C156.892 51.3276 158.051 50.7495 158.943 49.6821C159.791 48.6592 160.28 47.4139 160.324 45.9463C160.28 44.5232 159.835 43.3224 158.943 42.255Z" fill="white"/>
<path d="M338.441 56.1334C338.396 58.4015 337.104 59.5578 334.564 59.5578C333.405 59.5134 332.424 59.202 331.712 58.6684C330.953 58.0013 330.553 57.2007 330.598 56.1334C330.598 55.1105 331.042 54.2655 331.89 53.5984C332.604 52.9758 333.449 52.7089 334.564 52.7089C335.545 52.7089 336.437 53.0202 337.237 53.5984C337.996 54.2655 338.396 55.066 338.441 56.1334Z" fill="white"/>
<path d="M209.936 29.2374C213.272 29.2374 215.976 26.5329 215.976 23.1968C215.976 19.8607 213.272 17.1563 209.936 17.1563C206.6 17.1563 203.895 19.8607 203.895 23.1968C203.895 26.5329 206.6 29.2374 209.936 29.2374Z" fill="white"/>
<path d="M239.712 29.2374C243.048 29.2374 245.753 26.5329 245.753 23.1968C245.753 19.8607 243.048 17.1563 239.712 17.1563C236.376 17.1563 233.672 19.8607 233.672 23.1968C233.672 26.5329 236.376 29.2374 239.712 29.2374Z" fill="white"/>
</g>
<defs>
<clipPath id="clip0_15_196">
<rect width="367" height="60" fill="white"/>
</clipPath>
</defs>
</svg>
